<?xml version="1.0" encoding="UTF-8" standalone="no"?><svg xmlns="http://www.w3.org/2000/svg" xmlns:xlink="http://www.w3.org/1999/xlink" contentStyleType="text/css" height="400px" preserveAspectRatio="none" style="width:1017px;height:400px;background:#FFFFFF;" version="1.1" viewBox="0 0 1017 400" width="1017px" zoomAndPan="magnify"><defs/><g><!--MD5=[b6dcce5e5ef3c84b0b048d11301373dd]
class Game--><g id="elem_Game"><rect codeLine="1" fill="#F1F1F1" height="83.2188" id="Game" rx="2.5" ry="2.5" style="stroke:#181818;stroke-width:0.5;" width="109" x="189.5" y="7"/><ellipse cx="222.05" cy="23" fill="#ADD1B2" rx="11" ry="11" style="stroke:#181818;stroke-width:1.0;"/><path d="M224.8156,18.875 Q224.9719,18.6563 225.1594,18.5469 Q225.3469,18.4375 225.5656,18.4375 Q225.9406,18.4375 226.175,18.7031 Q226.4094,18.9531 226.4094,19.5625 L226.4094,21.0156 Q226.4094,21.625 226.175,21.8906 Q225.9406,22.1563 225.5656,22.1563 Q225.2219,22.1563 225.0188,21.9531 Q224.8156,21.7656 224.7063,21.25 Q224.6594,20.8906 224.4719,20.7031 Q224.1438,20.3281 223.5344,20.1094 Q222.925,19.8906 222.3,19.8906 Q221.5344,19.8906 220.8938,20.2188 Q220.2688,20.5469 219.7688,21.2969 Q219.2844,22.0469 219.2844,23.0781 L219.2844,24.1719 Q219.2844,25.4063 220.175,26.2344 Q221.0656,27.0469 222.6594,27.0469 Q223.5969,27.0469 224.2531,26.7969 Q224.6438,26.6406 225.0656,26.2031 Q225.3313,25.9375 225.4719,25.8594 Q225.6281,25.7813 225.8313,25.7813 Q226.1594,25.7813 226.4094,26.0469 Q226.675,26.2969 226.675,26.6406 Q226.675,26.9844 226.3313,27.3906 Q225.8313,27.9688 225.0344,28.2969 Q223.9563,28.75 222.6594,28.75 Q221.1438,28.75 219.9406,28.125 Q218.9563,27.625 218.2688,26.5625 Q217.5813,25.4844 217.5813,24.2031 L217.5813,23.0469 Q217.5813,21.7188 218.1906,20.5781 Q218.8156,19.4219 219.9094,18.8125 Q221.0031,18.1875 222.2375,18.1875 Q222.9719,18.1875 223.6125,18.3594 Q224.2688,18.5156 224.8156,18.875 Z " fill="#000000"/><text fill="#000000" font-family="sans-serif" font-size="14" lengthAdjust="spacing" textLength="38" x="239.95" y="28.7285">Game</text><line style="stroke:#181818;stroke-width:0.5;" x1="190.5" x2="297.5" y1="39" y2="39"/><text fill="#000000" font-family="sans-serif" font-size="14" lengthAdjust="spacing" textLength="97" x="195.5" y="57.5332">table: Pieces[][]</text><text fill="#000000" font-family="sans-serif" font-size="14" lengthAdjust="spacing" textLength="83" x="195.5" y="75.1426">board: Board</text><line style="stroke:#181818;stroke-width:0.5;" x1="190.5" x2="297.5" y1="82.2188" y2="82.2188"/></g><!--MD5=[9563755d011c5cec7ec66dc53565a59e]
class Board--><g id="elem_Board"><rect codeLine="6" fill="#F1F1F1" height="48" id="Board" rx="2.5" ry="2.5" style="stroke:#181818;stroke-width:0.5;" width="70" x="334" y="24.5"/><ellipse cx="349" cy="40.5" fill="#ADD1B2" rx="11" ry="11" style="stroke:#181818;stroke-width:1.0;"/><path d="M351.7656,36.375 Q351.9219,36.1563 352.1094,36.0469 Q352.2969,35.9375 352.5156,35.9375 Q352.8906,35.9375 353.125,36.2031 Q353.3594,36.4531 353.3594,37.0625 L353.3594,38.5156 Q353.3594,39.125 353.125,39.3906 Q352.8906,39.6563 352.5156,39.6563 Q352.1719,39.6563 351.9688,39.4531 Q351.7656,39.2656 351.6563,38.75 Q351.6094,38.3906 351.4219,38.2031 Q351.0938,37.8281 350.4844,37.6094 Q349.875,37.3906 349.25,37.3906 Q348.4844,37.3906 347.8438,37.7188 Q347.2188,38.0469 346.7188,38.7969 Q346.2344,39.5469 346.2344,40.5781 L346.2344,41.6719 Q346.2344,42.9063 347.125,43.7344 Q348.0156,44.5469 349.6094,44.5469 Q350.5469,44.5469 351.2031,44.2969 Q351.5938,44.1406 352.0156,43.7031 Q352.2813,43.4375 352.4219,43.3594 Q352.5781,43.2813 352.7813,43.2813 Q353.1094,43.2813 353.3594,43.5469 Q353.625,43.7969 353.625,44.1406 Q353.625,44.4844 353.2813,44.8906 Q352.7813,45.4688 351.9844,45.7969 Q350.9063,46.25 349.6094,46.25 Q348.0938,46.25 346.8906,45.625 Q345.9063,45.125 345.2188,44.0625 Q344.5313,42.9844 344.5313,41.7031 L344.5313,40.5469 Q344.5313,39.2188 345.1406,38.0781 Q345.7656,36.9219 346.8594,36.3125 Q347.9531,35.6875 349.1875,35.6875 Q349.9219,35.6875 350.5625,35.8594 Q351.2188,36.0156 351.7656,36.375 Z " fill="#000000"/><text fill="#000000" font-family="sans-serif" font-size="14" lengthAdjust="spacing" textLength="38" x="363" y="46.2285">Board</text><line style="stroke:#181818;stroke-width:0.5;" x1="335" x2="403" y1="56.5" y2="56.5"/><line style="stroke:#181818;stroke-width:0.5;" x1="335" x2="403" y1="64.5" y2="64.5"/></g><!--MD5=[2cb47ba637a0d19583e6199456f6ad0b]
class Player--><g id="elem_Player"><rect codeLine="10" fill="#F1F1F1" height="83.2188" id="Player" rx="2.5" ry="2.5" style="stroke:#181818;stroke-width:0.5;" width="92" x="198" y="167.5"/><ellipse cx="222" cy="183.5" fill="#ADD1B2" rx="11" ry="11" style="stroke:#181818;stroke-width:1.0;"/><path d="M224.7656,179.375 Q224.9219,179.1563 225.1094,179.0469 Q225.2969,178.9375 225.5156,178.9375 Q225.8906,178.9375 226.125,179.2031 Q226.3594,179.4531 226.3594,180.0625 L226.3594,181.5156 Q226.3594,182.125 226.125,182.3906 Q225.8906,182.6563 225.5156,182.6563 Q225.1719,182.6563 224.9688,182.4531 Q224.7656,182.2656 224.6563,181.75 Q224.6094,181.3906 224.4219,181.2031 Q224.0938,180.8281 223.4844,180.6094 Q222.875,180.3906 222.25,180.3906 Q221.4844,180.3906 220.8438,180.7188 Q220.2188,181.0469 219.7188,181.7969 Q219.2344,182.5469 219.2344,183.5781 L219.2344,184.6719 Q219.2344,185.9063 220.125,186.7344 Q221.0156,187.5469 222.6094,187.5469 Q223.5469,187.5469 224.2031,187.2969 Q224.5938,187.1406 225.0156,186.7031 Q225.2813,186.4375 225.4219,186.3594 Q225.5781,186.2813 225.7813,186.2813 Q226.1094,186.2813 226.3594,186.5469 Q226.625,186.7969 226.625,187.1406 Q226.625,187.4844 226.2813,187.8906 Q225.7813,188.4688 224.9844,188.7969 Q223.9063,189.25 222.6094,189.25 Q221.0938,189.25 219.8906,188.625 Q218.9063,188.125 218.2188,187.0625 Q217.5313,185.9844 217.5313,184.7031 L217.5313,183.5469 Q217.5313,182.2188 218.1406,181.0781 Q218.7656,179.9219 219.8594,179.3125 Q220.9531,178.6875 222.1875,178.6875 Q222.9219,178.6875 223.5625,178.8594 Q224.2188,179.0156 224.7656,179.375 Z " fill="#000000"/><text fill="#000000" font-family="sans-serif" font-size="14" lengthAdjust="spacing" textLength="40" x="238" y="189.2285">Player</text><line style="stroke:#181818;stroke-width:0.5;" x1="199" x2="289" y1="199.5" y2="199.5"/><text fill="#000000" font-family="sans-serif" font-size="14" lengthAdjust="spacing" textLength="80" x="204" y="218.0332">name: String</text><text fill="#000000" font-family="sans-serif" font-size="14" lengthAdjust="spacing" textLength="61" x="204" y="235.6426">points: int</text><line style="stroke:#181818;stroke-width:0.5;" x1="199" x2="289" y1="242.7188" y2="242.7188"/></g><!--MD5=[0901ae9769e715b2437a415377464fe5]
class Pieces--><g id="elem_Pieces"><rect codeLine="15" fill="#F1F1F1" height="118.4375" id="Pieces" rx="2.5" ry="2.5" style="stroke:#181818;stroke-width:0.5;" width="92" x="462" y="150"/><ellipse cx="485.1" cy="166" fill="#ADD1B2" rx="11" ry="11" style="stroke:#181818;stroke-width:1.0;"/><path d="M487.8656,161.875 Q488.0219,161.6563 488.2094,161.5469 Q488.3969,161.4375 488.6156,161.4375 Q488.9906,161.4375 489.225,161.7031 Q489.4594,161.9531 489.4594,162.5625 L489.4594,164.0156 Q489.4594,164.625 489.225,164.8906 Q488.9906,165.1563 488.6156,165.1563 Q488.2719,165.1563 488.0688,164.9531 Q487.8656,164.7656 487.7563,164.25 Q487.7094,163.8906 487.5219,163.7031 Q487.1938,163.3281 486.5844,163.1094 Q485.975,162.8906 485.35,162.8906 Q484.5844,162.8906 483.9438,163.2188 Q483.3188,163.5469 482.8188,164.2969 Q482.3344,165.0469 482.3344,166.0781 L482.3344,167.1719 Q482.3344,168.4063 483.225,169.2344 Q484.1156,170.0469 485.7094,170.0469 Q486.6469,170.0469 487.3031,169.7969 Q487.6938,169.6406 488.1156,169.2031 Q488.3813,168.9375 488.5219,168.8594 Q488.6781,168.7813 488.8813,168.7813 Q489.2094,168.7813 489.4594,169.0469 Q489.725,169.2969 489.725,169.6406 Q489.725,169.9844 489.3813,170.3906 Q488.8813,170.9688 488.0844,171.2969 Q487.0063,171.75 485.7094,171.75 Q484.1938,171.75 482.9906,171.125 Q482.0063,170.625 481.3188,169.5625 Q480.6313,168.4844 480.6313,167.2031 L480.6313,166.0469 Q480.6313,164.7188 481.2406,163.5781 Q481.8656,162.4219 482.9594,161.8125 Q484.0531,161.1875 485.2875,161.1875 Q486.0219,161.1875 486.6625,161.3594 Q487.3188,161.5156 487.8656,161.875 Z " fill="#000000"/><text fill="#000000" font-family="sans-serif" font-size="14" lengthAdjust="spacing" textLength="42" x="500.9" y="171.7285">Pieces</text><line style="stroke:#181818;stroke-width:0.5;" x1="463" x2="553" y1="182" y2="182"/><text fill="#000000" font-family="sans-serif" font-size="14" lengthAdjust="spacing" textLength="80" x="468" y="200.5332">name: String</text><text fill="#000000" font-family="sans-serif" font-size="14" lengthAdjust="spacing" textLength="71" x="468" y="218.1426">side: String</text><text fill="#000000" font-family="sans-serif" font-size="14" lengthAdjust="spacing" textLength="29" x="468" y="235.752">x: int</text><text fill="#000000" font-family="sans-serif" font-size="14" lengthAdjust="spacing" textLength="30" x="468" y="253.3613">y: int</text><line style="stroke:#181818;stroke-width:0.5;" x1="463" x2="553" y1="260.4375" y2="260.4375"/></g><!--MD5=[e2e04970b1b3f4a5a26dfa860353efc5]
class Control--><g id="elem_Control"><rect codeLine="46" fill="#F1F1F1" height="65.6094" id="Control" rx="2.5" ry="2.5" style="stroke:#181818;stroke-width:0.5;" width="138" x="439" y="15.5"/><ellipse cx="481" cy="31.5" fill="#B4A7E5" rx="11" ry="11" style="stroke:#181818;stroke-width:1.0;"/><path d="M481.9531,28.1406 L481.9531,34.7969 L483.6719,34.7969 Q484.2813,34.7969 484.5469,35.0313 Q484.8125,35.2656 484.8125,35.6563 Q484.8125,36.0313 484.5469,36.2656 Q484.2813,36.5 483.6719,36.5 L478.5313,36.5 Q477.9219,36.5 477.6563,36.2656 Q477.3906,36.0313 477.3906,35.6406 Q477.3906,35.2656 477.6563,35.0313 Q477.9219,34.7969 478.5313,34.7969 L480.25,34.7969 L480.25,28.1406 L478.5313,28.1406 Q477.9219,28.1406 477.6563,27.9063 Q477.3906,27.6719 477.3906,27.2813 Q477.3906,26.9063 477.6563,26.6719 Q477.9219,26.4375 478.5313,26.4375 L483.6719,26.4375 Q484.2813,26.4375 484.5469,26.6719 Q484.8125,26.9063 484.8125,27.2813 Q484.8125,27.6719 484.5469,27.9063 Q484.2813,28.1406 483.6719,28.1406 L481.9531,28.1406 Z " fill="#000000"/><text fill="#000000" font-family="sans-serif" font-size="14" font-style="italic" lengthAdjust="spacing" textLength="46" x="501" y="37.2285">Control</text><line style="stroke:#181818;stroke-width:0.5;" x1="440" x2="576" y1="47.5" y2="47.5"/><line style="stroke:#181818;stroke-width:0.5;" x1="440" x2="576" y1="55.5" y2="55.5"/><text fill="#000000" font-family="sans-serif" font-size="14" lengthAdjust="spacing" textLength="126" x="445" y="74.0332">canMove(): boolean</text></g><!--MD5=[449cd079d44679d193659f94873ba755]
class Bishop--><g id="elem_Bishop"><rect codeLine="22" fill="#F1F1F1" height="65.6094" id="Bishop" rx="2.5" ry="2.5" style="stroke:#181818;stroke-width:0.5;" width="138" x="7" y="328"/><ellipse cx="50.35" cy="344" fill="#ADD1B2" rx="11" ry="11" style="stroke:#181818;stroke-width:1.0;"/><path d="M53.1156,339.875 Q53.2719,339.6563 53.4594,339.5469 Q53.6469,339.4375 53.8656,339.4375 Q54.2406,339.4375 54.475,339.7031 Q54.7094,339.9531 54.7094,340.5625 L54.7094,342.0156 Q54.7094,342.625 54.475,342.8906 Q54.2406,343.1563 53.8656,343.1563 Q53.5219,343.1563 53.3188,342.9531 Q53.1156,342.7656 53.0063,342.25 Q52.9594,341.8906 52.7719,341.7031 Q52.4438,341.3281 51.8344,341.1094 Q51.225,340.8906 50.6,340.8906 Q49.8344,340.8906 49.1938,341.2188 Q48.5688,341.5469 48.0688,342.2969 Q47.5844,343.0469 47.5844,344.0781 L47.5844,345.1719 Q47.5844,346.4063 48.475,347.2344 Q49.3656,348.0469 50.9594,348.0469 Q51.8969,348.0469 52.5531,347.7969 Q52.9438,347.6406 53.3656,347.2031 Q53.6313,346.9375 53.7719,346.8594 Q53.9281,346.7813 54.1313,346.7813 Q54.4594,346.7813 54.7094,347.0469 Q54.975,347.2969 54.975,347.6406 Q54.975,347.9844 54.6313,348.3906 Q54.1313,348.9688 53.3344,349.2969 Q52.2563,349.75 50.9594,349.75 Q49.4438,349.75 48.2406,349.125 Q47.2563,348.625 46.5688,347.5625 Q45.8813,346.4844 45.8813,345.2031 L45.8813,344.0469 Q45.8813,342.7188 46.4906,341.5781 Q47.1156,340.4219 48.2094,339.8125 Q49.3031,339.1875 50.5375,339.1875 Q51.2719,339.1875 51.9125,339.3594 Q52.5688,339.5156 53.1156,339.875 Z " fill="#000000"/><text fill="#000000" font-family="sans-serif" font-size="14" lengthAdjust="spacing" textLength="43" x="70.65" y="349.7285">Bishop</text><line style="stroke:#181818;stroke-width:0.5;" x1="8" x2="144" y1="360" y2="360"/><line style="stroke:#181818;stroke-width:0.5;" x1="8" x2="144" y1="368" y2="368"/><text fill="#000000" font-family="sans-serif" font-size="14" lengthAdjust="spacing" textLength="126" x="13" y="386.5332">canMove(): boolean</text></g><!--MD5=[616f2a525b9ceea60682118ca5d51611]
class Niece--><g id="elem_Niece"><rect codeLine="26" fill="#F1F1F1" height="65.6094" id="Niece" rx="2.5" ry="2.5" style="stroke:#181818;stroke-width:0.5;" width="138" x="180" y="328"/><ellipse cx="227.25" cy="344" fill="#ADD1B2" rx="11" ry="11" style="stroke:#181818;stroke-width:1.0;"/><path d="M230.0156,339.875 Q230.1719,339.6563 230.3594,339.5469 Q230.5469,339.4375 230.7656,339.4375 Q231.1406,339.4375 231.375,339.7031 Q231.6094,339.9531 231.6094,340.5625 L231.6094,342.0156 Q231.6094,342.625 231.375,342.8906 Q231.1406,343.1563 230.7656,343.1563 Q230.4219,343.1563 230.2188,342.9531 Q230.0156,342.7656 229.9063,342.25 Q229.8594,341.8906 229.6719,341.7031 Q229.3438,341.3281 228.7344,341.1094 Q228.125,340.8906 227.5,340.8906 Q226.7344,340.8906 226.0938,341.2188 Q225.4688,341.5469 224.9688,342.2969 Q224.4844,343.0469 224.4844,344.0781 L224.4844,345.1719 Q224.4844,346.4063 225.375,347.2344 Q226.2656,348.0469 227.8594,348.0469 Q228.7969,348.0469 229.4531,347.7969 Q229.8438,347.6406 230.2656,347.2031 Q230.5313,346.9375 230.6719,346.8594 Q230.8281,346.7813 231.0313,346.7813 Q231.3594,346.7813 231.6094,347.0469 Q231.875,347.2969 231.875,347.6406 Q231.875,347.9844 231.5313,348.3906 Q231.0313,348.9688 230.2344,349.2969 Q229.1563,349.75 227.8594,349.75 Q226.3438,349.75 225.1406,349.125 Q224.1563,348.625 223.4688,347.5625 Q222.7813,346.4844 222.7813,345.2031 L222.7813,344.0469 Q222.7813,342.7188 223.3906,341.5781 Q224.0156,340.4219 225.1094,339.8125 Q226.2031,339.1875 227.4375,339.1875 Q228.1719,339.1875 228.8125,339.3594 Q229.4688,339.5156 230.0156,339.875 Z " fill="#000000"/><text fill="#000000" font-family="sans-serif" font-size="14" lengthAdjust="spacing" textLength="35" x="247.75" y="349.7285">Niece</text><line style="stroke:#181818;stroke-width:0.5;" x1="181" x2="317" y1="360" y2="360"/><line style="stroke:#181818;stroke-width:0.5;" x1="181" x2="317" y1="368" y2="368"/><text fill="#000000" font-family="sans-serif" font-size="14" lengthAdjust="spacing" textLength="126" x="186" y="386.5332">canMove(): boolean</text></g><!--MD5=[b5524c1f1cf4f7aeecdc9b5af5b05d87]
class Queen--><g id="elem_Queen"><rect codeLine="30" fill="#F1F1F1" height="65.6094" id="Queen" rx="2.5" ry="2.5" style="stroke:#181818;stroke-width:0.5;" width="138" x="353" y="328"/><ellipse cx="396.35" cy="344" fill="#ADD1B2" rx="11" ry="11" style="stroke:#181818;stroke-width:1.0;"/><path d="M399.1156,339.875 Q399.2719,339.6563 399.4594,339.5469 Q399.6469,339.4375 399.8656,339.4375 Q400.2406,339.4375 400.475,339.7031 Q400.7094,339.9531 400.7094,340.5625 L400.7094,342.0156 Q400.7094,342.625 400.475,342.8906 Q400.2406,343.1563 399.8656,343.1563 Q399.5219,343.1563 399.3188,342.9531 Q399.1156,342.7656 399.0063,342.25 Q398.9594,341.8906 398.7719,341.7031 Q398.4438,341.3281 397.8344,341.1094 Q397.225,340.8906 396.6,340.8906 Q395.8344,340.8906 395.1938,341.2188 Q394.5688,341.5469 394.0688,342.2969 Q393.5844,343.0469 393.5844,344.0781 L393.5844,345.1719 Q393.5844,346.4063 394.475,347.2344 Q395.3656,348.0469 396.9594,348.0469 Q397.8969,348.0469 398.5531,347.7969 Q398.9438,347.6406 399.3656,347.2031 Q399.6313,346.9375 399.7719,346.8594 Q399.9281,346.7813 400.1313,346.7813 Q400.4594,346.7813 400.7094,347.0469 Q400.975,347.2969 400.975,347.6406 Q400.975,347.9844 400.6313,348.3906 Q400.1313,348.9688 399.3344,349.2969 Q398.2563,349.75 396.9594,349.75 Q395.4438,349.75 394.2406,349.125 Q393.2563,348.625 392.5688,347.5625 Q391.8813,346.4844 391.8813,345.2031 L391.8813,344.0469 Q391.8813,342.7188 392.4906,341.5781 Q393.1156,340.4219 394.2094,339.8125 Q395.3031,339.1875 396.5375,339.1875 Q397.2719,339.1875 397.9125,339.3594 Q398.5688,339.5156 399.1156,339.875 Z " fill="#000000"/><text fill="#000000" font-family="sans-serif" font-size="14" lengthAdjust="spacing" textLength="43" x="416.65" y="349.7285">Queen</text><line style="stroke:#181818;stroke-width:0.5;" x1="354" x2="490" y1="360" y2="360"/><line style="stroke:#181818;stroke-width:0.5;" x1="354" x2="490" y1="368" y2="368"/><text fill="#000000" font-family="sans-serif" font-size="14" lengthAdjust="spacing" textLength="126" x="359" y="386.5332">canMove(): boolean</text></g><!--MD5=[6bd8cd731001ea389c78559e5d225136]
class Rook--><g id="elem_Rook"><rect codeLine="34" fill="#F1F1F1" height="65.6094" id="Rook" rx="2.5" ry="2.5" style="stroke:#181818;stroke-width:0.5;" width="138" x="526" y="328"/><ellipse cx="574.25" cy="344" fill="#ADD1B2" rx="11" ry="11" style="stroke:#181818;stroke-width:1.0;"/><path d="M577.0156,339.875 Q577.1719,339.6563 577.3594,339.5469 Q577.5469,339.4375 577.7656,339.4375 Q578.1406,339.4375 578.375,339.7031 Q578.6094,339.9531 578.6094,340.5625 L578.6094,342.0156 Q578.6094,342.625 578.375,342.8906 Q578.1406,343.1563 577.7656,343.1563 Q577.4219,343.1563 577.2188,342.9531 Q577.0156,342.7656 576.9063,342.25 Q576.8594,341.8906 576.6719,341.7031 Q576.3438,341.3281 575.7344,341.1094 Q575.125,340.8906 574.5,340.8906 Q573.7344,340.8906 573.0938,341.2188 Q572.4688,341.5469 571.9688,342.2969 Q571.4844,343.0469 571.4844,344.0781 L571.4844,345.1719 Q571.4844,346.4063 572.375,347.2344 Q573.2656,348.0469 574.8594,348.0469 Q575.7969,348.0469 576.4531,347.7969 Q576.8438,347.6406 577.2656,347.2031 Q577.5313,346.9375 577.6719,346.8594 Q577.8281,346.7813 578.0313,346.7813 Q578.3594,346.7813 578.6094,347.0469 Q578.875,347.2969 578.875,347.6406 Q578.875,347.9844 578.5313,348.3906 Q578.0313,348.9688 577.2344,349.2969 Q576.1563,349.75 574.8594,349.75 Q573.3438,349.75 572.1406,349.125 Q571.1563,348.625 570.4688,347.5625 Q569.7813,346.4844 569.7813,345.2031 L569.7813,344.0469 Q569.7813,342.7188 570.3906,341.5781 Q571.0156,340.4219 572.1094,339.8125 Q573.2031,339.1875 574.4375,339.1875 Q575.1719,339.1875 575.8125,339.3594 Q576.4688,339.5156 577.0156,339.875 Z " fill="#000000"/><text fill="#000000" font-family="sans-serif" font-size="14" lengthAdjust="spacing" textLength="33" x="594.75" y="349.7285">Rook</text><line style="stroke:#181818;stroke-width:0.5;" x1="527" x2="663" y1="360" y2="360"/><line style="stroke:#181818;stroke-width:0.5;" x1="527" x2="663" y1="368" y2="368"/><text fill="#000000" font-family="sans-serif" font-size="14" lengthAdjust="spacing" textLength="126" x="532" y="386.5332">canMove(): boolean</text></g><!--MD5=[76412a1b87b0f1c748604a3142aab9ae]
class King--><g id="elem_King"><rect codeLine="38" fill="#F1F1F1" height="65.6094" id="King" rx="2.5" ry="2.5" style="stroke:#181818;stroke-width:0.5;" width="138" x="699" y="328"/><ellipse cx="749.75" cy="344" fill="#ADD1B2" rx="11" ry="11" style="stroke:#181818;stroke-width:1.0;"/><path d="M752.5156,339.875 Q752.6719,339.6563 752.8594,339.5469 Q753.0469,339.4375 753.2656,339.4375 Q753.6406,339.4375 753.875,339.7031 Q754.1094,339.9531 754.1094,340.5625 L754.1094,342.0156 Q754.1094,342.625 753.875,342.8906 Q753.6406,343.1563 753.2656,343.1563 Q752.9219,343.1563 752.7188,342.9531 Q752.5156,342.7656 752.4063,342.25 Q752.3594,341.8906 752.1719,341.7031 Q751.8438,341.3281 751.2344,341.1094 Q750.625,340.8906 750,340.8906 Q749.2344,340.8906 748.5938,341.2188 Q747.9688,341.5469 747.4688,342.2969 Q746.9844,343.0469 746.9844,344.0781 L746.9844,345.1719 Q746.9844,346.4063 747.875,347.2344 Q748.7656,348.0469 750.3594,348.0469 Q751.2969,348.0469 751.9531,347.7969 Q752.3438,347.6406 752.7656,347.2031 Q753.0313,346.9375 753.1719,346.8594 Q753.3281,346.7813 753.5313,346.7813 Q753.8594,346.7813 754.1094,347.0469 Q754.375,347.2969 754.375,347.6406 Q754.375,347.9844 754.0313,348.3906 Q753.5313,348.9688 752.7344,349.2969 Q751.6563,349.75 750.3594,349.75 Q748.8438,349.75 747.6406,349.125 Q746.6563,348.625 745.9688,347.5625 Q745.2813,346.4844 745.2813,345.2031 L745.2813,344.0469 Q745.2813,342.7188 745.8906,341.5781 Q746.5156,340.4219 747.6094,339.8125 Q748.7031,339.1875 749.9375,339.1875 Q750.6719,339.1875 751.3125,339.3594 Q751.9688,339.5156 752.5156,339.875 Z " fill="#000000"/><text fill="#000000" font-family="sans-serif" font-size="14" lengthAdjust="spacing" textLength="28" x="770.25" y="349.7285">King</text><line style="stroke:#181818;stroke-width:0.5;" x1="700" x2="836" y1="360" y2="360"/><line style="stroke:#181818;stroke-width:0.5;" x1="700" x2="836" y1="368" y2="368"/><text fill="#000000" font-family="sans-serif" font-size="14" lengthAdjust="spacing" textLength="126" x="705" y="386.5332">canMove(): boolean</text></g><!--MD5=[af29ca247b3a3642f0fb478cea99ef78]
class Pawn--><g id="elem_Pawn"><rect codeLine="42" fill="#F1F1F1" height="65.6094" id="Pawn" rx="2.5" ry="2.5" style="stroke:#181818;stroke-width:0.5;" width="138" x="872" y="328"/><ellipse cx="919.75" cy="344" fill="#ADD1B2" rx="11" ry="11" style="stroke:#181818;stroke-width:1.0;"/><path d="M922.5156,339.875 Q922.6719,339.6563 922.8594,339.5469 Q923.0469,339.4375 923.2656,339.4375 Q923.6406,339.4375 923.875,339.7031 Q924.1094,339.9531 924.1094,340.5625 L924.1094,342.0156 Q924.1094,342.625 923.875,342.8906 Q923.6406,343.1563 923.2656,343.1563 Q922.9219,343.1563 922.7188,342.9531 Q922.5156,342.7656 922.4063,342.25 Q922.3594,341.8906 922.1719,341.7031 Q921.8438,341.3281 921.2344,341.1094 Q920.625,340.8906 920,340.8906 Q919.2344,340.8906 918.5938,341.2188 Q917.9688,341.5469 917.4688,342.2969 Q916.9844,343.0469 916.9844,344.0781 L916.9844,345.1719 Q916.9844,346.4063 917.875,347.2344 Q918.7656,348.0469 920.3594,348.0469 Q921.2969,348.0469 921.9531,347.7969 Q922.3438,347.6406 922.7656,347.2031 Q923.0313,346.9375 923.1719,346.8594 Q923.3281,346.7813 923.5313,346.7813 Q923.8594,346.7813 924.1094,347.0469 Q924.375,347.2969 924.375,347.6406 Q924.375,347.9844 924.0313,348.3906 Q923.5313,348.9688 922.7344,349.2969 Q921.6563,349.75 920.3594,349.75 Q918.8438,349.75 917.6406,349.125 Q916.6563,348.625 915.9688,347.5625 Q915.2813,346.4844 915.2813,345.2031 L915.2813,344.0469 Q915.2813,342.7188 915.8906,341.5781 Q916.5156,340.4219 917.6094,339.8125 Q918.7031,339.1875 919.9375,339.1875 Q920.6719,339.1875 921.3125,339.3594 Q921.9688,339.5156 922.5156,339.875 Z " fill="#000000"/><text fill="#000000" font-family="sans-serif" font-size="14" lengthAdjust="spacing" textLength="34" x="940.25" y="349.7285">Pawn</text><line style="stroke:#181818;stroke-width:0.5;" x1="873" x2="1009" y1="360" y2="360"/><line style="stroke:#181818;stroke-width:0.5;" x1="873" x2="1009" y1="368" y2="368"/><text fill="#000000" font-family="sans-serif" font-size="14" lengthAdjust="spacing" textLength="126" x="878" y="386.5332">canMove(): boolean</text></g><!--MD5=[387b2a023bcab2359a9916ab8efe4e4c]
reverse link Control to Pieces--><g id="link_Control_Pieces"><path d="M508,101.66 C508,117.03 508,133.95 508,149.68 " fill="none" id="Control-backto-Pieces" style="stroke:#181818;stroke-width:1.0;stroke-dasharray:7.0,7.0;"/><polygon fill="none" points="501,101.57,508,81.57,515,101.57,501,101.57" style="stroke:#181818;stroke-width:1.0;"/></g><!--MD5=[b9a9c6f01ce3eb80ed476e827986617e]
reverse link Pieces to Bishop--><g id="link_Pieces_Bishop"><path d="M442.66,231.69 C372.96,254.96 259.39,293.28 162,328 C156.6,329.93 151.01,331.94 145.41,333.99 " fill="none" id="Pieces-backto-Bishop" style="stroke:#181818;stroke-width:1.0;"/><polygon fill="none" points="440.78,224.94,461.97,225.25,445.21,238.22,440.78,224.94" style="stroke:#181818;stroke-width:1.0;"/></g><!--MD5=[54ba75ec347222aa6d0077ab9d23b3db]
reverse link Pieces to Niece--><g id="link_Pieces_Niece"><path d="M444.51,246.77 C401.63,271.61 345.57,304.07 304.48,327.87 " fill="none" id="Pieces-backto-Niece" style="stroke:#181818;stroke-width:1.0;"/><polygon fill="none" points="441.18,240.61,461.99,236.64,448.2,252.73,441.18,240.61" style="stroke:#181818;stroke-width:1.0;"/></g><!--MD5=[11537a92a4f6f2a32040ad2bc8e4976d]
reverse link Pieces to Queen--><g id="link_Pieces_Queen"><path d="M464.29,286.24 C455.85,300.95 447.46,315.6 440.39,327.92 " fill="none" id="Pieces-backto-Queen" style="stroke:#181818;stroke-width:1.0;"/><polygon fill="none" points="458.48,282.29,474.5,268.42,470.63,289.26,458.48,282.29" style="stroke:#181818;stroke-width:1.0;"/></g><!--MD5=[f6e260d2c08cb4f463d8717dbe20eeee]
reverse link Pieces to Rook--><g id="link_Pieces_Rook"><path d="M551.94,285.76 C560.57,300.63 569.17,315.46 576.39,327.92 " fill="none" id="Pieces-backto-Rook" style="stroke:#181818;stroke-width:1.0;"/><polygon fill="none" points="545.86,289.24,541.89,268.42,557.98,282.21,545.86,289.24" style="stroke:#181818;stroke-width:1.0;"/></g><!--MD5=[7788a55793011c4c3e73c9f4fb0b86cc]
reverse link Pieces to King--><g id="link_Pieces_King"><path d="M571.74,246.77 C614.78,271.61 671.06,304.07 712.31,327.87 " fill="none" id="Pieces-backto-King" style="stroke:#181818;stroke-width:1.0;"/><polygon fill="none" points="568.01,252.7,554.18,236.64,575,240.58,568.01,252.7" style="stroke:#181818;stroke-width:1.0;"/></g><!--MD5=[7b83f74a901c213aa17263ac14006e16]
reverse link Pieces to Pawn--><g id="link_Pieces_Pawn"><path d="M573.53,231.67 C643.44,254.93 757.34,293.23 855,328 C860.4,329.92 865.99,331.94 871.59,333.98 " fill="none" id="Pieces-backto-Pawn" style="stroke:#181818;stroke-width:1.0;"/><polygon fill="none" points="570.94,238.18,554.17,225.24,575.36,224.9,570.94,238.18" style="stroke:#181818;stroke-width:1.0;"/></g><!--MD5=[ea1729cd066bded5fbf60996d83a6cf4]
@startuml
class Game{
    table: Pieces[][]
    board: Board
}

class Board {

}

class Player {
    name: String
    points: int
}

class Pieces implements Control {
    name: String
    side: String
    x: int
    y: int
}

class Bishop extends Pieces {
    canMove(): boolean
}

class Niece extends Pieces {
    canMove(): boolean
}

class Queen extends Pieces {
    canMove(): boolean
}

class Rook extends Pieces {
    canMove(): boolean
}

class King extends Pieces {
    canMove(): boolean
}

class Pawn extends Pieces {
    canMove(): boolean
}

interface Control {
    canMove(): boolean 
}
@enduml

PlantUML version 1.2022.7(Mon Aug 22 19:01:30 CEST 2022)
(GPL source distribution)
Java Runtime: OpenJDK Runtime Environment
JVM: OpenJDK 64-Bit Server VM
Default Encoding: Cp1252
Language: it
Country: CH
--></g></svg>