<?xml version="1.0" encoding="UTF-8" standalone="no"?><svg xmlns="http://www.w3.org/2000/svg" xmlns:xlink="http://www.w3.org/1999/xlink" contentStyleType="text/css" height="275px" preserveAspectRatio="none" style="width:1174px;height:275px;background:#FFFFFF;" version="1.1" viewBox="0 0 1174 275" width="1174px" zoomAndPan="magnify"><defs/><g><!--MD5=[b6dcce5e5ef3c84b0b048d11301373dd]
class Game--><g id="elem_Game"><rect codeLine="1" fill="#F1F1F1" height="118.4375" id="Game" rx="2.5" ry="2.5" style="stroke:#181818;stroke-width:0.5;" width="152" x="7" y="7"/><ellipse cx="59.75" cy="23" fill="#ADD1B2" rx="11" ry="11" style="stroke:#181818;stroke-width:1.0;"/><path d="M62.5156,18.875 Q62.6719,18.6563 62.8594,18.5469 Q63.0469,18.4375 63.2656,18.4375 Q63.6406,18.4375 63.875,18.7031 Q64.1094,18.9531 64.1094,19.5625 L64.1094,21.0156 Q64.1094,21.625 63.875,21.8906 Q63.6406,22.1563 63.2656,22.1563 Q62.9219,22.1563 62.7188,21.9531 Q62.5156,21.7656 62.4063,21.25 Q62.3594,20.8906 62.1719,20.7031 Q61.8438,20.3281 61.2344,20.1094 Q60.625,19.8906 60,19.8906 Q59.2344,19.8906 58.5938,20.2188 Q57.9688,20.5469 57.4688,21.2969 Q56.9844,22.0469 56.9844,23.0781 L56.9844,24.1719 Q56.9844,25.4063 57.875,26.2344 Q58.7656,27.0469 60.3594,27.0469 Q61.2969,27.0469 61.9531,26.7969 Q62.3438,26.6406 62.7656,26.2031 Q63.0313,25.9375 63.1719,25.8594 Q63.3281,25.7813 63.5313,25.7813 Q63.8594,25.7813 64.1094,26.0469 Q64.375,26.2969 64.375,26.6406 Q64.375,26.9844 64.0313,27.3906 Q63.5313,27.9688 62.7344,28.2969 Q61.6563,28.75 60.3594,28.75 Q58.8438,28.75 57.6406,28.125 Q56.6563,27.625 55.9688,26.5625 Q55.2813,25.4844 55.2813,24.2031 L55.2813,23.0469 Q55.2813,21.7188 55.8906,20.5781 Q56.5156,19.4219 57.6094,18.8125 Q58.7031,18.1875 59.9375,18.1875 Q60.6719,18.1875 61.3125,18.3594 Q61.9688,18.5156 62.5156,18.875 Z " fill="#000000"/><text fill="#000000" font-family="sans-serif" font-size="14" lengthAdjust="spacing" textLength="38" x="80.25" y="28.7285">Game</text><line style="stroke:#181818;stroke-width:0.5;" x1="8" x2="158" y1="39" y2="39"/><text fill="#000000" font-family="sans-serif" font-size="14" lengthAdjust="spacing" textLength="97" x="13" y="57.5332">table: Pieces[][]</text><text fill="#000000" font-family="sans-serif" font-size="14" lengthAdjust="spacing" textLength="83" x="13" y="75.1426">board: Board</text><text fill="#000000" font-family="sans-serif" font-size="14" lengthAdjust="spacing" textLength="140" x="13" y="92.752">isCheckMate: boolean</text><text fill="#000000" font-family="sans-serif" font-size="14" lengthAdjust="spacing" textLength="109" x="13" y="110.3613">isCheck: boolean</text><line style="stroke:#181818;stroke-width:0.5;" x1="8" x2="158" y1="117.4375" y2="117.4375"/></g><!--MD5=[9563755d011c5cec7ec66dc53565a59e]
class Board--><g id="elem_Board"><rect codeLine="8" fill="#F1F1F1" height="48" id="Board" rx="2.5" ry="2.5" style="stroke:#181818;stroke-width:0.5;" width="70" x="194" y="42"/><ellipse cx="209" cy="58" fill="#ADD1B2" rx="11" ry="11" style="stroke:#181818;stroke-width:1.0;"/><path d="M211.7656,53.875 Q211.9219,53.6563 212.1094,53.5469 Q212.2969,53.4375 212.5156,53.4375 Q212.8906,53.4375 213.125,53.7031 Q213.3594,53.9531 213.3594,54.5625 L213.3594,56.0156 Q213.3594,56.625 213.125,56.8906 Q212.8906,57.1563 212.5156,57.1563 Q212.1719,57.1563 211.9688,56.9531 Q211.7656,56.7656 211.6563,56.25 Q211.6094,55.8906 211.4219,55.7031 Q211.0938,55.3281 210.4844,55.1094 Q209.875,54.8906 209.25,54.8906 Q208.4844,54.8906 207.8438,55.2188 Q207.2188,55.5469 206.7188,56.2969 Q206.2344,57.0469 206.2344,58.0781 L206.2344,59.1719 Q206.2344,60.4063 207.125,61.2344 Q208.0156,62.0469 209.6094,62.0469 Q210.5469,62.0469 211.2031,61.7969 Q211.5938,61.6406 212.0156,61.2031 Q212.2813,60.9375 212.4219,60.8594 Q212.5781,60.7813 212.7813,60.7813 Q213.1094,60.7813 213.3594,61.0469 Q213.625,61.2969 213.625,61.6406 Q213.625,61.9844 213.2813,62.3906 Q212.7813,62.9688 211.9844,63.2969 Q210.9063,63.75 209.6094,63.75 Q208.0938,63.75 206.8906,63.125 Q205.9063,62.625 205.2188,61.5625 Q204.5313,60.4844 204.5313,59.2031 L204.5313,58.0469 Q204.5313,56.7188 205.1406,55.5781 Q205.7656,54.4219 206.8594,53.8125 Q207.9531,53.1875 209.1875,53.1875 Q209.9219,53.1875 210.5625,53.3594 Q211.2188,53.5156 211.7656,53.875 Z " fill="#000000"/><text fill="#000000" font-family="sans-serif" font-size="14" lengthAdjust="spacing" textLength="38" x="223" y="63.7285">Board</text><line style="stroke:#181818;stroke-width:0.5;" x1="195" x2="263" y1="74" y2="74"/><line style="stroke:#181818;stroke-width:0.5;" x1="195" x2="263" y1="82" y2="82"/></g><!--MD5=[2cb47ba637a0d19583e6199456f6ad0b]
class Player--><g id="elem_Player"><rect codeLine="12" fill="#F1F1F1" height="83.2188" id="Player" rx="2.5" ry="2.5" style="stroke:#181818;stroke-width:0.5;" width="92" x="37" y="185"/><ellipse cx="61" cy="201" fill="#ADD1B2" rx="11" ry="11" style="stroke:#181818;stroke-width:1.0;"/><path d="M63.7656,196.875 Q63.9219,196.6563 64.1094,196.5469 Q64.2969,196.4375 64.5156,196.4375 Q64.8906,196.4375 65.125,196.7031 Q65.3594,196.9531 65.3594,197.5625 L65.3594,199.0156 Q65.3594,199.625 65.125,199.8906 Q64.8906,200.1563 64.5156,200.1563 Q64.1719,200.1563 63.9688,199.9531 Q63.7656,199.7656 63.6563,199.25 Q63.6094,198.8906 63.4219,198.7031 Q63.0938,198.3281 62.4844,198.1094 Q61.875,197.8906 61.25,197.8906 Q60.4844,197.8906 59.8438,198.2188 Q59.2188,198.5469 58.7188,199.2969 Q58.2344,200.0469 58.2344,201.0781 L58.2344,202.1719 Q58.2344,203.4063 59.125,204.2344 Q60.0156,205.0469 61.6094,205.0469 Q62.5469,205.0469 63.2031,204.7969 Q63.5938,204.6406 64.0156,204.2031 Q64.2813,203.9375 64.4219,203.8594 Q64.5781,203.7813 64.7813,203.7813 Q65.1094,203.7813 65.3594,204.0469 Q65.625,204.2969 65.625,204.6406 Q65.625,204.9844 65.2813,205.3906 Q64.7813,205.9688 63.9844,206.2969 Q62.9063,206.75 61.6094,206.75 Q60.0938,206.75 58.8906,206.125 Q57.9063,205.625 57.2188,204.5625 Q56.5313,203.4844 56.5313,202.2031 L56.5313,201.0469 Q56.5313,199.7188 57.1406,198.5781 Q57.7656,197.4219 58.8594,196.8125 Q59.9531,196.1875 61.1875,196.1875 Q61.9219,196.1875 62.5625,196.3594 Q63.2188,196.5156 63.7656,196.875 Z " fill="#000000"/><text fill="#000000" font-family="sans-serif" font-size="14" lengthAdjust="spacing" textLength="40" x="77" y="206.7285">Player</text><line style="stroke:#181818;stroke-width:0.5;" x1="38" x2="128" y1="217" y2="217"/><text fill="#000000" font-family="sans-serif" font-size="14" lengthAdjust="spacing" textLength="80" x="43" y="235.5332">name: String</text><text fill="#000000" font-family="sans-serif" font-size="14" lengthAdjust="spacing" textLength="61" x="43" y="253.1426">points: int</text><line style="stroke:#181818;stroke-width:0.5;" x1="38" x2="128" y1="260.2188" y2="260.2188"/></g><!--MD5=[0901ae9769e715b2437a415377464fe5]
class Pieces--><g id="elem_Pieces"><rect codeLine="17" fill="#F1F1F1" height="118.4375" id="Pieces" rx="2.5" ry="2.5" style="stroke:#181818;stroke-width:0.5;" width="92" x="539" y="7"/><ellipse cx="562.1" cy="23" fill="#ADD1B2" rx="11" ry="11" style="stroke:#181818;stroke-width:1.0;"/><path d="M564.8656,18.875 Q565.0219,18.6563 565.2094,18.5469 Q565.3969,18.4375 565.6156,18.4375 Q565.9906,18.4375 566.225,18.7031 Q566.4594,18.9531 566.4594,19.5625 L566.4594,21.0156 Q566.4594,21.625 566.225,21.8906 Q565.9906,22.1563 565.6156,22.1563 Q565.2719,22.1563 565.0688,21.9531 Q564.8656,21.7656 564.7563,21.25 Q564.7094,20.8906 564.5219,20.7031 Q564.1938,20.3281 563.5844,20.1094 Q562.975,19.8906 562.35,19.8906 Q561.5844,19.8906 560.9438,20.2188 Q560.3188,20.5469 559.8188,21.2969 Q559.3344,22.0469 559.3344,23.0781 L559.3344,24.1719 Q559.3344,25.4063 560.225,26.2344 Q561.1156,27.0469 562.7094,27.0469 Q563.6469,27.0469 564.3031,26.7969 Q564.6938,26.6406 565.1156,26.2031 Q565.3813,25.9375 565.5219,25.8594 Q565.6781,25.7813 565.8813,25.7813 Q566.2094,25.7813 566.4594,26.0469 Q566.725,26.2969 566.725,26.6406 Q566.725,26.9844 566.3813,27.3906 Q565.8813,27.9688 565.0844,28.2969 Q564.0063,28.75 562.7094,28.75 Q561.1938,28.75 559.9906,28.125 Q559.0063,27.625 558.3188,26.5625 Q557.6313,25.4844 557.6313,24.2031 L557.6313,23.0469 Q557.6313,21.7188 558.2406,20.5781 Q558.8656,19.4219 559.9594,18.8125 Q561.0531,18.1875 562.2875,18.1875 Q563.0219,18.1875 563.6625,18.3594 Q564.3188,18.5156 564.8656,18.875 Z " fill="#000000"/><text fill="#000000" font-family="sans-serif" font-size="14" lengthAdjust="spacing" textLength="42" x="577.9" y="28.7285">Pieces</text><line style="stroke:#181818;stroke-width:0.5;" x1="540" x2="630" y1="39" y2="39"/><text fill="#000000" font-family="sans-serif" font-size="14" lengthAdjust="spacing" textLength="80" x="545" y="57.5332">name: String</text><text fill="#000000" font-family="sans-serif" font-size="14" lengthAdjust="spacing" textLength="71" x="545" y="75.1426">side: String</text><text fill="#000000" font-family="sans-serif" font-size="14" lengthAdjust="spacing" textLength="29" x="545" y="92.752">x: int</text><text fill="#000000" font-family="sans-serif" font-size="14" lengthAdjust="spacing" textLength="30" x="545" y="110.3613">y: int</text><line style="stroke:#181818;stroke-width:0.5;" x1="540" x2="630" y1="117.4375" y2="117.4375"/></g><!--MD5=[449cd079d44679d193659f94873ba755]
class Bishop--><g id="elem_Bishop"><rect codeLine="24" fill="#F1F1F1" height="65.6094" id="Bishop" rx="2.5" ry="2.5" style="stroke:#181818;stroke-width:0.5;" width="138" x="164" y="193.5"/><ellipse cx="207.35" cy="209.5" fill="#ADD1B2" rx="11" ry="11" style="stroke:#181818;stroke-width:1.0;"/><path d="M210.1156,205.375 Q210.2719,205.1563 210.4594,205.0469 Q210.6469,204.9375 210.8656,204.9375 Q211.2406,204.9375 211.475,205.2031 Q211.7094,205.4531 211.7094,206.0625 L211.7094,207.5156 Q211.7094,208.125 211.475,208.3906 Q211.2406,208.6563 210.8656,208.6563 Q210.5219,208.6563 210.3188,208.4531 Q210.1156,208.2656 210.0063,207.75 Q209.9594,207.3906 209.7719,207.2031 Q209.4438,206.8281 208.8344,206.6094 Q208.225,206.3906 207.6,206.3906 Q206.8344,206.3906 206.1938,206.7188 Q205.5688,207.0469 205.0688,207.7969 Q204.5844,208.5469 204.5844,209.5781 L204.5844,210.6719 Q204.5844,211.9063 205.475,212.7344 Q206.3656,213.5469 207.9594,213.5469 Q208.8969,213.5469 209.5531,213.2969 Q209.9438,213.1406 210.3656,212.7031 Q210.6313,212.4375 210.7719,212.3594 Q210.9281,212.2813 211.1313,212.2813 Q211.4594,212.2813 211.7094,212.5469 Q211.975,212.7969 211.975,213.1406 Q211.975,213.4844 211.6313,213.8906 Q211.1313,214.4688 210.3344,214.7969 Q209.2563,215.25 207.9594,215.25 Q206.4438,215.25 205.2406,214.625 Q204.2563,214.125 203.5688,213.0625 Q202.8813,211.9844 202.8813,210.7031 L202.8813,209.5469 Q202.8813,208.2188 203.4906,207.0781 Q204.1156,205.9219 205.2094,205.3125 Q206.3031,204.6875 207.5375,204.6875 Q208.2719,204.6875 208.9125,204.8594 Q209.5688,205.0156 210.1156,205.375 Z " fill="#000000"/><text fill="#000000" font-family="sans-serif" font-size="14" lengthAdjust="spacing" textLength="43" x="227.65" y="215.2285">Bishop</text><line style="stroke:#181818;stroke-width:0.5;" x1="165" x2="301" y1="225.5" y2="225.5"/><line style="stroke:#181818;stroke-width:0.5;" x1="165" x2="301" y1="233.5" y2="233.5"/><text fill="#000000" font-family="sans-serif" font-size="14" lengthAdjust="spacing" textLength="126" x="170" y="252.0332">canMove(): boolean</text></g><!--MD5=[e2e04970b1b3f4a5a26dfa860353efc5]
class Control--><g id="elem_Control"><rect codeLine="48" fill="#F1F1F1" height="65.6094" id="Control" rx="2.5" ry="2.5" style="stroke:#181818;stroke-width:0.5;" width="138" x="677" y="33"/><ellipse cx="719" cy="49" fill="#B4A7E5" rx="11" ry="11" style="stroke:#181818;stroke-width:1.0;"/><path d="M719.9531,45.6406 L719.9531,52.2969 L721.6719,52.2969 Q722.2813,52.2969 722.5469,52.5313 Q722.8125,52.7656 722.8125,53.1563 Q722.8125,53.5313 722.5469,53.7656 Q722.2813,54 721.6719,54 L716.5313,54 Q715.9219,54 715.6563,53.7656 Q715.3906,53.5313 715.3906,53.1406 Q715.3906,52.7656 715.6563,52.5313 Q715.9219,52.2969 716.5313,52.2969 L718.25,52.2969 L718.25,45.6406 L716.5313,45.6406 Q715.9219,45.6406 715.6563,45.4063 Q715.3906,45.1719 715.3906,44.7813 Q715.3906,44.4063 715.6563,44.1719 Q715.9219,43.9375 716.5313,43.9375 L721.6719,43.9375 Q722.2813,43.9375 722.5469,44.1719 Q722.8125,44.4063 722.8125,44.7813 Q722.8125,45.1719 722.5469,45.4063 Q722.2813,45.6406 721.6719,45.6406 L719.9531,45.6406 Z " fill="#000000"/><text fill="#000000" font-family="sans-serif" font-size="14" font-style="italic" lengthAdjust="spacing" textLength="46" x="739" y="54.7285">Control</text><line style="stroke:#181818;stroke-width:0.5;" x1="678" x2="814" y1="65" y2="65"/><line style="stroke:#181818;stroke-width:0.5;" x1="678" x2="814" y1="73" y2="73"/><text fill="#000000" font-family="sans-serif" font-size="14" lengthAdjust="spacing" textLength="126" x="683" y="91.5332">canMove(): boolean</text></g><!--MD5=[616f2a525b9ceea60682118ca5d51611]
class Niece--><g id="elem_Niece"><rect codeLine="28" fill="#F1F1F1" height="65.6094" id="Niece" rx="2.5" ry="2.5" style="stroke:#181818;stroke-width:0.5;" width="138" x="337" y="193.5"/><ellipse cx="384.25" cy="209.5" fill="#ADD1B2" rx="11" ry="11" style="stroke:#181818;stroke-width:1.0;"/><path d="M387.0156,205.375 Q387.1719,205.1563 387.3594,205.0469 Q387.5469,204.9375 387.7656,204.9375 Q388.1406,204.9375 388.375,205.2031 Q388.6094,205.4531 388.6094,206.0625 L388.6094,207.5156 Q388.6094,208.125 388.375,208.3906 Q388.1406,208.6563 387.7656,208.6563 Q387.4219,208.6563 387.2188,208.4531 Q387.0156,208.2656 386.9063,207.75 Q386.8594,207.3906 386.6719,207.2031 Q386.3438,206.8281 385.7344,206.6094 Q385.125,206.3906 384.5,206.3906 Q383.7344,206.3906 383.0938,206.7188 Q382.4688,207.0469 381.9688,207.7969 Q381.4844,208.5469 381.4844,209.5781 L381.4844,210.6719 Q381.4844,211.9063 382.375,212.7344 Q383.2656,213.5469 384.8594,213.5469 Q385.7969,213.5469 386.4531,213.2969 Q386.8438,213.1406 387.2656,212.7031 Q387.5313,212.4375 387.6719,212.3594 Q387.8281,212.2813 388.0313,212.2813 Q388.3594,212.2813 388.6094,212.5469 Q388.875,212.7969 388.875,213.1406 Q388.875,213.4844 388.5313,213.8906 Q388.0313,214.4688 387.2344,214.7969 Q386.1563,215.25 384.8594,215.25 Q383.3438,215.25 382.1406,214.625 Q381.1563,214.125 380.4688,213.0625 Q379.7813,211.9844 379.7813,210.7031 L379.7813,209.5469 Q379.7813,208.2188 380.3906,207.0781 Q381.0156,205.9219 382.1094,205.3125 Q383.2031,204.6875 384.4375,204.6875 Q385.1719,204.6875 385.8125,204.8594 Q386.4688,205.0156 387.0156,205.375 Z " fill="#000000"/><text fill="#000000" font-family="sans-serif" font-size="14" lengthAdjust="spacing" textLength="35" x="404.75" y="215.2285">Niece</text><line style="stroke:#181818;stroke-width:0.5;" x1="338" x2="474" y1="225.5" y2="225.5"/><line style="stroke:#181818;stroke-width:0.5;" x1="338" x2="474" y1="233.5" y2="233.5"/><text fill="#000000" font-family="sans-serif" font-size="14" lengthAdjust="spacing" textLength="126" x="343" y="252.0332">canMove(): boolean</text></g><!--MD5=[b5524c1f1cf4f7aeecdc9b5af5b05d87]
class Queen--><g id="elem_Queen"><rect codeLine="32" fill="#F1F1F1" height="65.6094" id="Queen" rx="2.5" ry="2.5" style="stroke:#181818;stroke-width:0.5;" width="138" x="510" y="193.5"/><ellipse cx="553.35" cy="209.5" fill="#ADD1B2" rx="11" ry="11" style="stroke:#181818;stroke-width:1.0;"/><path d="M556.1156,205.375 Q556.2719,205.1563 556.4594,205.0469 Q556.6469,204.9375 556.8656,204.9375 Q557.2406,204.9375 557.475,205.2031 Q557.7094,205.4531 557.7094,206.0625 L557.7094,207.5156 Q557.7094,208.125 557.475,208.3906 Q557.2406,208.6563 556.8656,208.6563 Q556.5219,208.6563 556.3188,208.4531 Q556.1156,208.2656 556.0063,207.75 Q555.9594,207.3906 555.7719,207.2031 Q555.4438,206.8281 554.8344,206.6094 Q554.225,206.3906 553.6,206.3906 Q552.8344,206.3906 552.1938,206.7188 Q551.5688,207.0469 551.0688,207.7969 Q550.5844,208.5469 550.5844,209.5781 L550.5844,210.6719 Q550.5844,211.9063 551.475,212.7344 Q552.3656,213.5469 553.9594,213.5469 Q554.8969,213.5469 555.5531,213.2969 Q555.9438,213.1406 556.3656,212.7031 Q556.6313,212.4375 556.7719,212.3594 Q556.9281,212.2813 557.1313,212.2813 Q557.4594,212.2813 557.7094,212.5469 Q557.975,212.7969 557.975,213.1406 Q557.975,213.4844 557.6313,213.8906 Q557.1313,214.4688 556.3344,214.7969 Q555.2563,215.25 553.9594,215.25 Q552.4438,215.25 551.2406,214.625 Q550.2563,214.125 549.5688,213.0625 Q548.8813,211.9844 548.8813,210.7031 L548.8813,209.5469 Q548.8813,208.2188 549.4906,207.0781 Q550.1156,205.9219 551.2094,205.3125 Q552.3031,204.6875 553.5375,204.6875 Q554.2719,204.6875 554.9125,204.8594 Q555.5688,205.0156 556.1156,205.375 Z " fill="#000000"/><text fill="#000000" font-family="sans-serif" font-size="14" lengthAdjust="spacing" textLength="43" x="573.65" y="215.2285">Queen</text><line style="stroke:#181818;stroke-width:0.5;" x1="511" x2="647" y1="225.5" y2="225.5"/><line style="stroke:#181818;stroke-width:0.5;" x1="511" x2="647" y1="233.5" y2="233.5"/><text fill="#000000" font-family="sans-serif" font-size="14" lengthAdjust="spacing" textLength="126" x="516" y="252.0332">canMove(): boolean</text></g><!--MD5=[6bd8cd731001ea389c78559e5d225136]
class Rook--><g id="elem_Rook"><rect codeLine="36" fill="#F1F1F1" height="65.6094" id="Rook" rx="2.5" ry="2.5" style="stroke:#181818;stroke-width:0.5;" width="138" x="683" y="193.5"/><ellipse cx="731.25" cy="209.5" fill="#ADD1B2" rx="11" ry="11" style="stroke:#181818;stroke-width:1.0;"/><path d="M734.0156,205.375 Q734.1719,205.1563 734.3594,205.0469 Q734.5469,204.9375 734.7656,204.9375 Q735.1406,204.9375 735.375,205.2031 Q735.6094,205.4531 735.6094,206.0625 L735.6094,207.5156 Q735.6094,208.125 735.375,208.3906 Q735.1406,208.6563 734.7656,208.6563 Q734.4219,208.6563 734.2188,208.4531 Q734.0156,208.2656 733.9063,207.75 Q733.8594,207.3906 733.6719,207.2031 Q733.3438,206.8281 732.7344,206.6094 Q732.125,206.3906 731.5,206.3906 Q730.7344,206.3906 730.0938,206.7188 Q729.4688,207.0469 728.9688,207.7969 Q728.4844,208.5469 728.4844,209.5781 L728.4844,210.6719 Q728.4844,211.9063 729.375,212.7344 Q730.2656,213.5469 731.8594,213.5469 Q732.7969,213.5469 733.4531,213.2969 Q733.8438,213.1406 734.2656,212.7031 Q734.5313,212.4375 734.6719,212.3594 Q734.8281,212.2813 735.0313,212.2813 Q735.3594,212.2813 735.6094,212.5469 Q735.875,212.7969 735.875,213.1406 Q735.875,213.4844 735.5313,213.8906 Q735.0313,214.4688 734.2344,214.7969 Q733.1563,215.25 731.8594,215.25 Q730.3438,215.25 729.1406,214.625 Q728.1563,214.125 727.4688,213.0625 Q726.7813,211.9844 726.7813,210.7031 L726.7813,209.5469 Q726.7813,208.2188 727.3906,207.0781 Q728.0156,205.9219 729.1094,205.3125 Q730.2031,204.6875 731.4375,204.6875 Q732.1719,204.6875 732.8125,204.8594 Q733.4688,205.0156 734.0156,205.375 Z " fill="#000000"/><text fill="#000000" font-family="sans-serif" font-size="14" lengthAdjust="spacing" textLength="33" x="751.75" y="215.2285">Rook</text><line style="stroke:#181818;stroke-width:0.5;" x1="684" x2="820" y1="225.5" y2="225.5"/><line style="stroke:#181818;stroke-width:0.5;" x1="684" x2="820" y1="233.5" y2="233.5"/><text fill="#000000" font-family="sans-serif" font-size="14" lengthAdjust="spacing" textLength="126" x="689" y="252.0332">canMove(): boolean</text></g><!--MD5=[76412a1b87b0f1c748604a3142aab9ae]
class King--><g id="elem_King"><rect codeLine="40" fill="#F1F1F1" height="65.6094" id="King" rx="2.5" ry="2.5" style="stroke:#181818;stroke-width:0.5;" width="138" x="856" y="193.5"/><ellipse cx="906.75" cy="209.5" fill="#ADD1B2" rx="11" ry="11" style="stroke:#181818;stroke-width:1.0;"/><path d="M909.5156,205.375 Q909.6719,205.1563 909.8594,205.0469 Q910.0469,204.9375 910.2656,204.9375 Q910.6406,204.9375 910.875,205.2031 Q911.1094,205.4531 911.1094,206.0625 L911.1094,207.5156 Q911.1094,208.125 910.875,208.3906 Q910.6406,208.6563 910.2656,208.6563 Q909.9219,208.6563 909.7188,208.4531 Q909.5156,208.2656 909.4063,207.75 Q909.3594,207.3906 909.1719,207.2031 Q908.8438,206.8281 908.2344,206.6094 Q907.625,206.3906 907,206.3906 Q906.2344,206.3906 905.5938,206.7188 Q904.9688,207.0469 904.4688,207.7969 Q903.9844,208.5469 903.9844,209.5781 L903.9844,210.6719 Q903.9844,211.9063 904.875,212.7344 Q905.7656,213.5469 907.3594,213.5469 Q908.2969,213.5469 908.9531,213.2969 Q909.3438,213.1406 909.7656,212.7031 Q910.0313,212.4375 910.1719,212.3594 Q910.3281,212.2813 910.5313,212.2813 Q910.8594,212.2813 911.1094,212.5469 Q911.375,212.7969 911.375,213.1406 Q911.375,213.4844 911.0313,213.8906 Q910.5313,214.4688 909.7344,214.7969 Q908.6563,215.25 907.3594,215.25 Q905.8438,215.25 904.6406,214.625 Q903.6563,214.125 902.9688,213.0625 Q902.2813,211.9844 902.2813,210.7031 L902.2813,209.5469 Q902.2813,208.2188 902.8906,207.0781 Q903.5156,205.9219 904.6094,205.3125 Q905.7031,204.6875 906.9375,204.6875 Q907.6719,204.6875 908.3125,204.8594 Q908.9688,205.0156 909.5156,205.375 Z " fill="#000000"/><text fill="#000000" font-family="sans-serif" font-size="14" lengthAdjust="spacing" textLength="28" x="927.25" y="215.2285">King</text><line style="stroke:#181818;stroke-width:0.5;" x1="857" x2="993" y1="225.5" y2="225.5"/><line style="stroke:#181818;stroke-width:0.5;" x1="857" x2="993" y1="233.5" y2="233.5"/><text fill="#000000" font-family="sans-serif" font-size="14" lengthAdjust="spacing" textLength="126" x="862" y="252.0332">canMove(): boolean</text></g><!--MD5=[af29ca247b3a3642f0fb478cea99ef78]
class Pawn--><g id="elem_Pawn"><rect codeLine="44" fill="#F1F1F1" height="65.6094" id="Pawn" rx="2.5" ry="2.5" style="stroke:#181818;stroke-width:0.5;" width="138" x="1029" y="193.5"/><ellipse cx="1076.75" cy="209.5" fill="#ADD1B2" rx="11" ry="11" style="stroke:#181818;stroke-width:1.0;"/><path d="M1079.5156,205.375 Q1079.6719,205.1563 1079.8594,205.0469 Q1080.0469,204.9375 1080.2656,204.9375 Q1080.6406,204.9375 1080.875,205.2031 Q1081.1094,205.4531 1081.1094,206.0625 L1081.1094,207.5156 Q1081.1094,208.125 1080.875,208.3906 Q1080.6406,208.6563 1080.2656,208.6563 Q1079.9219,208.6563 1079.7188,208.4531 Q1079.5156,208.2656 1079.4063,207.75 Q1079.3594,207.3906 1079.1719,207.2031 Q1078.8438,206.8281 1078.2344,206.6094 Q1077.625,206.3906 1077,206.3906 Q1076.2344,206.3906 1075.5938,206.7188 Q1074.9688,207.0469 1074.4688,207.7969 Q1073.9844,208.5469 1073.9844,209.5781 L1073.9844,210.6719 Q1073.9844,211.9063 1074.875,212.7344 Q1075.7656,213.5469 1077.3594,213.5469 Q1078.2969,213.5469 1078.9531,213.2969 Q1079.3438,213.1406 1079.7656,212.7031 Q1080.0313,212.4375 1080.1719,212.3594 Q1080.3281,212.2813 1080.5313,212.2813 Q1080.8594,212.2813 1081.1094,212.5469 Q1081.375,212.7969 1081.375,213.1406 Q1081.375,213.4844 1081.0313,213.8906 Q1080.5313,214.4688 1079.7344,214.7969 Q1078.6563,215.25 1077.3594,215.25 Q1075.8438,215.25 1074.6406,214.625 Q1073.6563,214.125 1072.9688,213.0625 Q1072.2813,211.9844 1072.2813,210.7031 L1072.2813,209.5469 Q1072.2813,208.2188 1072.8906,207.0781 Q1073.5156,205.9219 1074.6094,205.3125 Q1075.7031,204.6875 1076.9375,204.6875 Q1077.6719,204.6875 1078.3125,204.8594 Q1078.9688,205.0156 1079.5156,205.375 Z " fill="#000000"/><text fill="#000000" font-family="sans-serif" font-size="14" lengthAdjust="spacing" textLength="34" x="1097.25" y="215.2285">Pawn</text><line style="stroke:#181818;stroke-width:0.5;" x1="1030" x2="1166" y1="225.5" y2="225.5"/><line style="stroke:#181818;stroke-width:0.5;" x1="1030" x2="1166" y1="233.5" y2="233.5"/><text fill="#000000" font-family="sans-serif" font-size="14" lengthAdjust="spacing" textLength="126" x="1035" y="252.0332">canMove(): boolean</text></g><!--MD5=[b9a9c6f01ce3eb80ed476e827986617e]
reverse link Pieces to Bishop--><g id="link_Pieces_Bishop"><path d="M520.38,95.18 C466.4,118.83 387.49,153.69 319,185 C313.15,187.68 307.08,190.48 301,193.3 " fill="none" id="Pieces-backto-Bishop" style="stroke:#181818;stroke-width:1.0;"/><polygon fill="none" points="517.6,88.76,538.73,87.15,523.21,101.58,517.6,88.76" style="stroke:#181818;stroke-width:1.0;"/></g><!--MD5=[234e26a067d33f968a1d841d0875895a]
reverse link Control to Bishop--><g id="link_Control_Bishop"><path d="M682.33,109.4 C671.52,115.32 660.18,120.8 649,125 C509.45,177.43 460.97,139.53 319,185 C311.61,187.37 304.04,190.23 296.6,193.33 " fill="none" id="Control-backto-Bishop" style="stroke:#181818;stroke-width:1.0;stroke-dasharray:7.0,7.0;"/><polygon fill="none" points="679.06,103.21,699.86,99.19,686.11,115.3,679.06,103.21" style="stroke:#181818;stroke-width:1.0;"/></g><!--MD5=[54ba75ec347222aa6d0077ab9d23b3db]
reverse link Pieces to Niece--><g id="link_Pieces_Niece"><path d="M523.89,121.11 C496.76,145.13 465.75,172.59 442.35,193.31 " fill="none" id="Pieces-backto-Niece" style="stroke:#181818;stroke-width:1.0;"/><polygon fill="none" points="519.29,115.84,538.9,107.82,528.57,126.32,519.29,115.84" style="stroke:#181818;stroke-width:1.0;"/></g><!--MD5=[e26298440b43bc7135329821c357137f]
reverse link Control to Niece--><g id="link_Control_Niece"><path d="M678.78,109.19 C668.94,114.78 658.81,120.22 649,125 C582.21,157.51 561.38,155.97 493,185 C486.71,187.67 480.21,190.52 473.72,193.43 " fill="none" id="Control-backto-Niece" style="stroke:#181818;stroke-width:1.0;stroke-dasharray:7.0,7.0;"/><polygon fill="none" points="675.27,103.14,696.06,99.09,682.34,115.23,675.27,103.14" style="stroke:#181818;stroke-width:1.0;"/></g><!--MD5=[11537a92a4f6f2a32040ad2bc8e4976d]
reverse link Pieces to Queen--><g id="link_Pieces_Queen"><path d="M582.04,145.2 C581.4,162.16 580.75,179.2 580.22,193.18 " fill="none" id="Pieces-backto-Queen" style="stroke:#181818;stroke-width:1.0;"/><polygon fill="none" points="575.05,144.84,582.8,125.12,589.04,145.37,575.05,144.84" style="stroke:#181818;stroke-width:1.0;"/></g><!--MD5=[340681f99f79de34984a2052d4a40f74]
reverse link Control to Queen--><g id="link_Control_Queen"><path d="M697.42,113.11 C670.25,138.89 637.07,170.39 612.74,193.47 " fill="none" id="Control-backto-Queen" style="stroke:#181818;stroke-width:1.0;stroke-dasharray:7.0,7.0;"/><polygon fill="none" points="692.88,107.77,712.21,99.07,702.52,117.92,692.88,107.77" style="stroke:#181818;stroke-width:1.0;"/></g><!--MD5=[f6e260d2c08cb4f463d8717dbe20eeee]
reverse link Pieces to Rook--><g id="link_Pieces_Rook"><path d="M645.84,124.74 C670.27,147.93 697.49,173.77 718.26,193.47 " fill="none" id="Pieces-backto-Rook" style="stroke:#181818;stroke-width:1.0;"/><polygon fill="none" points="640.76,129.58,631.08,110.73,650.4,119.42,640.76,129.58" style="stroke:#181818;stroke-width:1.0;"/></g><!--MD5=[e8a3e5f819de246b90dc7cf3bdc6b7e2]
reverse link Control to Rook--><g id="link_Control_Rook"><path d="M747.98,119.32 C748.91,143.82 749.98,172.21 750.79,193.47 " fill="none" id="Control-backto-Rook" style="stroke:#181818;stroke-width:1.0;stroke-dasharray:7.0,7.0;"/><polygon fill="none" points="740.98,119.33,747.21,99.07,754.97,118.8,740.98,119.33" style="stroke:#181818;stroke-width:1.0;"/></g><!--MD5=[7788a55793011c4c3e73c9f4fb0b86cc]
reverse link Pieces to King--><g id="link_Pieces_King"><path d="M648.17,118.11 C652.09,120.57 656.05,122.89 660,125 C734,164.55 761.13,153.74 839,185 C845.43,187.58 852.07,190.41 858.67,193.33 " fill="none" id="Pieces-backto-King" style="stroke:#181818;stroke-width:1.0;"/><polygon fill="none" points="643.95,123.71,631.37,106.66,651.84,112.14,643.95,123.71" style="stroke:#181818;stroke-width:1.0;"/></g><!--MD5=[8d5edd05c85fc5f8b383354d6179ce04]
reverse link Control to King--><g id="link_Control_King"><path d="M797.26,112.39 C826.53,138.31 862.52,170.17 888.83,193.47 " fill="none" id="Control-backto-King" style="stroke:#181818;stroke-width:1.0;stroke-dasharray:7.0,7.0;"/><polygon fill="none" points="792.56,117.57,782.22,99.07,801.84,107.09,792.56,117.57" style="stroke:#181818;stroke-width:1.0;"/></g><!--MD5=[7b83f74a901c213aa17263ac14006e16]
reverse link Pieces to Pawn--><g id="link_Pieces_Pawn"><path d="M648.44,119.22 C652.25,121.34 656.11,123.29 660,125 C805.32,188.78 860.6,137.42 1012,185 C1019.56,187.37 1027.3,190.28 1034.9,193.44 " fill="none" id="Pieces-backto-Pawn" style="stroke:#181818;stroke-width:1.0;"/><polygon fill="none" points="644.28,124.86,631.18,108.21,651.8,113.06,644.28,124.86" style="stroke:#181818;stroke-width:1.0;"/></g><!--MD5=[ee29e79da87bde67beed78ff9adf9b8d]
reverse link Control to Pawn--><g id="link_Control_Pawn"><path d="M833.51,105.23 C885.5,128.09 952.66,157.87 1012,185 C1017.85,187.68 1023.92,190.48 1030,193.3 " fill="none" id="Control-backto-Pawn" style="stroke:#181818;stroke-width:1.0;stroke-dasharray:7.0,7.0;"/><polygon fill="none" points="830.58,111.59,815.08,97.14,836.21,98.77,830.58,111.59" style="stroke:#181818;stroke-width:1.0;"/></g><!--MD5=[2946dfc76a2ae072f9507c301bf3701c]
@startuml
class Game{
    table: Pieces[][]
    board: Board
    isCheckMate: boolean
    isCheck: boolean
}

class Board {

}

class Player {
    name: String
    points: int
}

class Pieces {
    name: String
    side: String
    x: int
    y: int
}

class Bishop extends Pieces implements Control {
    canMove(): boolean
}

class Niece extends Pieces implements Control {
    canMove(): boolean
}

class Queen extends Pieces implements Control {
    canMove(): boolean
}

class Rook extends Pieces implements Control {
    canMove(): boolean
}

class King extends Pieces implements Control {
    canMove(): boolean
}

class Pawn extends Pieces implements Control {
    canMove(): boolean
}

interface Control {
    canMove(): boolean 
}
@enduml

PlantUML version 1.2022.7(Mon Aug 22 19:01:30 CEST 2022)
(GPL source distribution)
Java Runtime: OpenJDK Runtime Environment
JVM: OpenJDK 64-Bit Server VM
Default Encoding: Cp1252
Language: it
Country: CH
--></g></svg>